<svg xmlns="http://www.w3.org/2000/svg" viewBox="0 0 4096 4096">
  <path
    fill="#111111"
    stroke="none"
    d="m 1900.8691,449.35352 a 12.0012,12.0012 0 0 0 -7.4082,3.51367 l -187.7363,190.10547 -250.6484,-1.57227 a 12.0012,12.0012 0 0 0 -4.252,0.75 l -348,129.19922 a 12.0012,12.0012 0 0 0 -4.8476,3.33984 L 850.37695,1057.0898 a 12.0012,12.0012 0 0 0 -2.53125,4.6719 l -157.05468,560.4238 a 12,12 0 0 0 0.17382,1.4415 12.0012,12.0012 0 0 0 -0.27929,3.8046 l 64.69922,364.4649 a 12.0012,12.0012 0 0 0 17.74414,8.3359 l 201.43945,-114.4883 3.4375,102.9571 a 12.0012,12.0012 0 0 0 1.29687,3.0449 12.0012,12.0012 0 0 0 0.006,0.1074 l 103.93161,266.1035 a 12,12 0 0 0 -5.6601,2.293 l -184.00002,181.1992 a 12.0012,12.0012 0 0 0 -2.07617,14.3672 l 143.74219,259.4395 -87.97852,468.0254 -90.00586,61.0898 a 12.0012,12.0012 0 0 0 -4.17969,4.9492 l -69.19922,151.6992 A 12.0012,12.0012 0 0 0 794.80078,3418 h 256.09962 a 12.0012,12.0012 0 0 0 11.6758,-9.2285 l 31.5859,-133.084 a 12.0012,12.0012 0 0 0 0.2949,-0.4219 l 129.3828,-415.7246 276.1192,98.7578 a 12.0012,12.0012 0 0 0 15.2187,-15.664 l -90.5,-231.7012 a 12.0012,12.0012 0 0 0 -9.6074,-7.5313 l -112.4375,-14.8359 -4.123,-16.2676 124.5019,-256.3828 86.8535,-43.334 428.1661,-32.8593 59.0996,174.9179 a 12.0012,12.0012 0 0 0 3.6113,5.3145 l 261.5098,221.623 -110.3106,447.6309 -84.5937,57.5703 a 12.0012,12.0012 0 0 0 -4.2539,5.1387 l -64.8575,149.3008 A 12.0012,12.0012 0 0 0 2009.2441,3418 H 2254 a 12.0012,12.0012 0 0 0 8.5313,-3.5625 l 26.7812,-27.0781 a 12,12 0 0 0 1.0879,-2.666 12.0012,12.0012 0 0 0 1.8066,-2.2911 l 201.3008,-681 a 12,12 0 0 0 -2.1465,-10.0898 l -113.6386,-201.9687 298.8261,275.6289 -66.08,424.3046 -85.6622,58.8301 a 12.0012,12.0012 0 0 0 -4.1171,4.8985 l -67.7422,148 A 12.0012,12.0012 0 0 0 2463.8594,3418 h 261.4414 a 12.0012,12.0012 0 0 0 3.3379,-1.1348 12,12 0 0 0 1.7402,-0.1191 12,12 0 0 0 0.584,-0.6699 12.0012,12.0012 0 0 0 5.4199,-6.2168 12,12 0 0 0 0.031,-0.045 12.0012,12.0012 0 0 0 0.4824,-0.7247 l 181.6992,-682 a 12.0012,12.0012 0 0 0 -0,-0.049 12,12 0 0 0 -0.033,-0.4492 12.0012,12.0012 0 0 0 -1.1191,-7.9766 12,12 0 0 0 -0.098,-0.7011 l -123.8262,-210.3887 133.6172,-399.0508 64.1094,245.9922 62.0156,379.4687 a 12.0012,12.0012 0 0 0 3.6856,6.8672 l 228.9004,212.0996 a 12.0012,12.0012 0 0 0 7.2929,3.1661 l 373,26.9004 a 12,12 0 0 0 2.0957,-0.6954 l 2.4121,2.3399 a 12,12 0 0 0 16.9688,-0.2578 12,12 0 0 0 -0.2578,-16.9688 l -222.3164,-215.6875 -171.7442,-643.7929 a 12.0012,12.0012 0 0 0 -2.1035,-4.25 l -231.6953,-299.4356 a 12,12 0 0 0 -2.2969,-1.3125 12.0012,12.0012 0 0 0 -3.0937,-2.4844 l -304,-110.6992 a 12.0012,12.0012 0 0 0 -0.7891,0.037 12,12 0 0 0 -5.0547,-1.7383 l -389.7676,24 a 12,12 0 0 0 -0.375,0.1836 l -461.5039,-6.7695 -352.0351,-155.4414 25.625,-325.7109 139.3847,109.5468 64.0899,140.6446 a 12.0012,12.0012 0 0 0 11.8926,6.9843 l 157.4004,-12.8007 a 12.0012,12.0012 0 0 0 10.9902,-12.8985 l -33.6094,-428.9492 a 12,12 0 0 0 5.5371,0.834 l 466.5371,-115.77736 a 12,12 0 0 0 2.3008,-1.69922 12,12 0 0 0 1.586,-1.17187 12,12 0 0 0 4.0136,-5.98828 12,12 0 0 0 0.4375,-0.65235 12,12 0 0 0 -0.1914,-0.97265 12,12 0 0 0 0.6094,-4.05274 12,12 0 0 0 -1.9238,-2.60547 12,12 0 0 0 -1.7481,-2.36914 12,12 0 0 0 -4.1308,-2.76758 12,12 0 0 0 -2.0235,-1.35547 L 1941.5469,798.875 1930.9941,472.61133 a 12.0012,12.0012 0 0 0 -5.1914,-9.4961 l -17,-11.70117 a 12.0012,12.0012 0 0 0 -7.9336,-2.06054 z m 2.6075,27.52929 3.7265,2.56446 10.6641,329.70312 -23.5,134.36133 -167.6719,-287.61719 z m -446.3575,188.53125 194.002,1.2168 -374.3496,252.74609 -363.46486,102.34175 200.71486,-228.92573 z m 227.961,7.24805 -171.6719,266.8457 a 12.0012,12.0012 0 0 0 -1.8105,8.01758 l 28.3046,220.85551 -240.0156,-235.65434 z m 25.9512,4.01562 177.6992,304.81641 36.3711,464.21486 -137.0762,11.1484 -61.8066,-135.6328 a 12.0012,12.0012 0 0 0 -3.504,-4.459 L 1567.4805,1194.7578 1535.959,948.81445 Z m 228.7773,146.32618 391.1445,78.40039 -414.8437,102.9492 a 12,12 0 0 0 -1.4317,1.0567 l -2.0957,-26.73637 z m -656.6133,126.96875 260.4024,255.66604 -27.1543,345.1465 -172.7129,138.4902 -285.92,-383.1699 z m -28.8086,0.63867 -221.1035,349.36917 -307.8457,287.5097 144.78125,-516.6289 14.36914,-16.3886 a 12,12 0 0 0 0.66406,0.078 z m -222.5957,383.60347 -20.5898,212.4473 a 12,12 0 0 0 -0.2344,0.416 l -36.8125,311.2949 -198.10938,112.5958 -60.58984,-341.3145 z m 23.3008,8.3731 269.9043,361.7109 -0.5625,0.4492 a 12,12 0 0 0 -3.6289,-4.5507 l -285.0996,-157.586 z m -22.4707,225.7422 273.4473,151.1445 -304.875,244.4668 -3.30082,-98.8418 a 12.0012,12.0012 0 0 0 -0.28125,-0.7148 z m 496.6699,2.916 343.1055,151.498 -344.5,580.8516 -516.3067,-317.2266 z m 1208.9336,141.1934 165.9082,340.5644 -510.1191,-319.3691 z m 31.5645,9.9941 267.4589,97.3945 -40.1757,461.8457 -51.8907,-199.1093 a 12.0012,12.0012 0 0 0 -0.7929,-1.0801 12,12 0 0 0 -0.045,-0.7403 z m -873.4922,7.0605 444.0566,6.5137 -144.7246,539.2617 -251.1113,39.8789 a 12.0012,12.0012 0 0 0 -0.018,0.01 l -415.5098,31.8886 12.7227,-20.2715 a 12.0012,12.0012 0 0 0 0.6074,-0.4511 z m 467.0898,13.2813 546.3653,342.0605 a 12,12 0 0 0 -0.02,0.021 l -140.6601,420.0801 -85.4766,233.8867 -345.459,-318.6445 a 12.0012,12.0012 0 0 0 -0.164,-0.068 12,12 0 0 0 -0.047,-0.1308 L 2217.584,2286.0508 Z m 695.9199,100.418 211.4219,273.2363 163.2676,612.0195 -408.0879,-310.6777 -10.8223,-66.2285 z m -2044.6328,173.2382 500.4844,307.5039 -17.5312,27.9317 -88.7735,44.2891 -209.2597,93.7402 z m 77.1426,263.4825 87.7871,224.7714 -97.7793,245.1153 -164.91014,-297.6445 z m 1105.4219,19.4004 122.8359,136.705 a 12,12 0 0 0 0.1446,0.068 l 142.457,253.1836 -183.3028,35.3574 -260.5722,-220.8281 -56.4824,-167.1778 z m -808.4473,132.1269 -103.6367,213.416 -75.9648,-132.9609 z m 1642.7481,20.7813 414.1914,315.3261 a 12,12 0 0 0 1.6172,0.4258 l 195.0351,189.2188 -343.3164,-24.7598 -222.7871,-206.4356 z m -1837.6133,81.3378 80.2695,140.4942 4.4746,17.6562 -169.8301,55.1426 z m 1589.0234,3.3262 104.9199,178.2656 -181.6386,31.6602 z m -1488.2226,174.8457 110.1757,14.5371 78.3379,200.5606 -263.0976,-94.0996 a 12.0012,12.0012 0 0 0 -0.014,0 l -117.541,-45.4532 -6.1816,-11.1562 z m 1170.2461,1.5391 -188.3594,637.2168 -101.0293,-156.9121 109.8281,-445.6699 z m 425.5996,25.7734 -168.7696,633.4707 -88,-177.1172 65.8926,-423.0859 z m -1837.0918,9.1192 30.2226,54.5507 a 12.0012,12.0012 0 0 0 6.168,5.377 l 111.4355,43.0918 -125.0546,401.8223 -104.86528,-68.1192 z m -95.33402,456.7402 111.03122,72.127 L 1041.4141,3394 H 813.46289 l 60.05859,-131.6602 z m 1201.42772,8.1426 105.8281,164.3594 -16.4121,16.5937 h -221.4511 l 56.1836,-129.334 z m 456.8281,1.2676 89.2754,179.6855 h -223.1289 l 58.5801,-127.9883 z"
  />
</svg>