<svg xmlns="http://www.w3.org/2000/svg" fill="currentColor" viewBox="0 0 774 187"><path d="M0 0 C5.94 0 11.88 0 18 0 C23.50617312 10.19996004 28.71784138 20.46777012 33.67626953 30.94384766 C38.94385016 42.04912535 44.46556191 53.02586663 50 64 C57.42007571 50.07121086 64.5442225 36.00989283 71.5625 21.875 C73.51984892 17.93375327 75.47984786 13.99384051 77.44140625 10.0546875 C77.88609756 9.15700653 78.33078888 8.25932556 78.78895569 7.33444214 C79.19705978 6.51493073 79.60516388 5.69541931 80.02563477 4.85107422 C80.38407974 4.12894745 80.74252472 3.40682068 81.11183167 2.66281128 C82 1 82 1 83 0 C85.84335048 -0.09986975 88.65697163 -0.13877881 91.5 -0.125 C92.69689453 -0.13080078 92.69689453 -0.13080078 93.91796875 -0.13671875 C99.87339233 -0.12660767 99.87339233 -0.12660767 101 1 C101.09532328 4.07454761 101.1255138 7.12659158 101.11352539 10.20141602 C101.11367142 11.16716553 101.11381744 12.13291504 101.1139679 13.12792969 C101.11326834 16.33661099 101.10547397 19.54523503 101.09765625 22.75390625 C101.09579222 24.97208118 101.09436825 27.19025652 101.09336853 29.40843201 C101.08954216 35.25940071 101.07971086 41.11034477 101.06866455 46.96130371 C101.05845299 52.92667304 101.05387146 58.89204633 101.04882812 64.85742188 C101.03808869 76.57162718 101.02049093 88.28580769 101 100 C94.73 100 88.46 100 82 100 C81.67 82.18 81.34 64.36 81 46 C78.009375 52.125625 75.01875 58.25125 71.9375 64.5625 C71.00929443 66.46201416 70.08108887 68.36152832 69.12475586 70.31860352 C64.31815815 80.16793264 59.58979481 90.04770169 55 100 C52.03 100 49.06 100 46 100 C42.93799587 93.75713461 39.87817438 87.51320593 36.8203125 81.26831055 C35.78118876 79.14692779 34.741484 77.02582953 33.70117188 74.9050293 C32.20026821 71.84499725 30.70150272 68.78392579 29.203125 65.72265625 C28.742547 64.78478775 28.28196899 63.84691925 27.80743408 62.88063049 C27.36727966 61.98037643 26.92712524 61.08012238 26.47363281 60.15258789 C26.09168762 59.37315323 25.70974243 58.59371857 25.31622314 57.79066467 C23.47710919 53.89136359 21.75096505 49.93967137 20 46 C19.67 63.82 19.34 81.64 19 100 C12.73 100 6.46 100 0 100 C0 67 0 34 0 0 Z" transform="translate(552 2)"/><path d="M0 0 C5.94 0 11.88 0 18 0 C28.66666667 21.33333333 39.33333333 42.66666667 50 64 C57.42007571 50.07121086 64.5442225 36.00989283 71.5625 21.875 C73.51984892 17.93375327 75.47984786 13.99384051 77.44140625 10.0546875 C77.88609756 9.15700653 78.33078888 8.25932556 78.78895569 7.33444214 C79.19705978 6.51493073 79.60516388 5.69541931 80.02563477 4.85107422 C80.38407974 4.12894745 80.74252472 3.40682068 81.11183167 2.66281128 C82 1 82 1 83 0 C85.84335048 -0.09986975 88.65697163 -0.13877881 91.5 -0.125 C92.69689453 -0.13080078 92.69689453 -0.13080078 93.91796875 -0.13671875 C99.87339233 -0.12660767 99.87339233 -0.12660767 101 1 C101.09532328 4.07454761 101.1255138 7.12659158 101.11352539 10.20141602 C101.11367142 11.16716553 101.11381744 12.13291504 101.1139679 13.12792969 C101.11326834 16.33661099 101.10547397 19.54523503 101.09765625 22.75390625 C101.09579222 24.97208118 101.09436825 27.19025652 101.09336853 29.40843201 C101.08954216 35.25940071 101.07971086 41.11034477 101.06866455 46.96130371 C101.05845299 52.92667304 101.05387146 58.89204633 101.04882812 64.85742188 C101.03808869 76.57162718 101.02049093 88.28580769 101 100 C94.73 100 88.46 100 82 100 C81.67 82.18 81.34 64.36 81 46 C77.82375 52.496875 74.6475 58.99375 71.375 65.6875 C70.3854834 67.70963623 69.3959668 69.73177246 68.37646484 71.81518555 C63.80878826 81.16218838 59.28922165 90.52106324 55 100 C52.03 100 49.06 100 46 100 C42.93799587 93.75713461 39.87817438 87.51320593 36.8203125 81.26831055 C35.78118876 79.14692779 34.741484 77.02582953 33.70117188 74.9050293 C32.20026821 71.84499725 30.70150272 68.78392579 29.203125 65.72265625 C28.742547 64.78478775 28.28196899 63.84691925 27.80743408 62.88063049 C27.36727966 61.98037643 26.92712524 61.08012238 26.47363281 60.15258789 C26.09168762 59.37315323 25.70974243 58.59371857 25.31622314 57.79066467 C23.47710919 53.89136359 21.75096505 49.93967137 20 46 C19.67 63.82 19.34 81.64 19 100 C12.73 100 6.46 100 0 100 C0 67 0 34 0 0 Z" transform="translate(283 2)"/><path d="M0 0 C6.36947821 5.07477484 10.75269076 11.09143633 13 19 C12.54467773 21.15722656 12.54467773 21.15722656 12 23 C9.22970414 23.50314563 6.4588348 24.00263838 3.6875 24.5 C2.90181641 24.64308594 2.11613281 24.78617188 1.30664062 24.93359375 C0.1706543 25.13662109 0.1706543 25.13662109 -0.98828125 25.34375 C-1.68477783 25.46943359 -2.38127441 25.59511719 -3.09887695 25.72460938 C-5 26 -5 26 -8 26 C-8.23074219 25.46890625 -8.46148437 24.9378125 -8.69921875 24.390625 C-11.23132679 18.90605896 -13.67307201 15.57262637 -19.2890625 12.91796875 C-25.17811755 10.92383627 -31.71614119 11.23871373 -37.5625 13.1875 C-40.4068413 15.30252301 -41.71821055 16.6824273 -43 20 C-42.77752165 23.73093378 -42.77752165 23.73093378 -42 27 C-38.09476375 28.65404208 -34.16774873 29.85691463 -30.08203125 30.98828125 C-28.73099587 31.3687008 -27.38008846 31.74957506 -26.02929688 32.13085938 C-23.9288888 32.72104257 -21.82783737 33.30827698 -19.72436523 33.88745117 C2.19020011 39.93792853 2.19020011 39.93792853 8.5 47.4375 C9.1290625 48.15808594 9.758125 48.87867188 10.40625 49.62109375 C14.80650392 56.18911982 14.70076774 63.37241273 14 71 C12.28317932 78.74742497 8.2348872 84.18992379 2 89 C-3.62147277 92.50672825 -9.46010749 94.93226245 -16 96 C-17.21236328 96.20109375 -17.21236328 96.20109375 -18.44921875 96.40625 C-30.60492807 97.96785937 -43.8756227 96.27088077 -53.8828125 88.8671875 C-62.99078223 81.11934125 -66.51978996 74.84168031 -68 63 C-61.4 62.01 -54.8 61.02 -48 60 C-47.175 61.711875 -46.35 63.42375 -45.5 65.1875 C-42.23241404 71.20388457 -38.61901582 74.58658116 -32.046875 76.59765625 C-24.19931214 78.14021154 -16.9533963 76.99820288 -10 73 C-8.02055064 70.03082597 -7.70649419 69.34297721 -7.6875 66 C-7.67074219 65.319375 -7.65398438 64.63875 -7.63671875 63.9375 C-8.11830457 61.36904227 -9.00777166 60.67415747 -11 59 C-19.07858577 55.31039779 -27.95825679 53.15567951 -36.48242188 50.73242188 C-53.60810888 45.68594499 -53.60810888 45.68594499 -59 39 C-59.53625 38.360625 -60.0725 37.72125 -60.625 37.0625 C-65.37464896 29.93802656 -65.10959741 20.65201181 -63.5 12.453125 C-60.8430906 4.66354972 -55.80523574 0.24978799 -48.87109375 -3.67578125 C-33.61173619 -10.71377065 -13.80462506 -10.0325833 0 0 Z" transform="translate(68 8)"/><path d="M0 0 C1.27423828 -0.00193359 1.27423828 -0.00193359 2.57421875 -0.00390625 C3.91419922 0.00189453 3.91419922 0.00189453 5.28125 0.0078125 C6.17457031 0.00394531 7.06789062 0.00007812 7.98828125 -0.00390625 C8.83777344 -0.00261719 9.68726563 -0.00132813 10.5625 0 C11.34689453 0.00112793 12.13128906 0.00225586 12.93945312 0.00341797 C14.78125 0.1328125 14.78125 0.1328125 15.78125 1.1328125 C15.88410335 3.20705558 15.91698052 5.28478972 15.9230957 7.36157227 C15.92830734 8.33737999 15.92830734 8.33737999 15.93362427 9.332901 C15.94099477 10.75103965 15.94633323 12.16918994 15.94991493 13.58734322 C15.95707206 15.83704615 15.97273605 18.08652989 15.99125671 20.33616638 C16.04373779 26.73457693 16.09163335 33.13287338 16.10717773 39.53149414 C16.11730321 43.44270088 16.14675083 47.35336498 16.18849754 51.26435661 C16.20075716 52.75093401 16.20593805 54.23758829 16.20369911 55.72421455 C16.1946299 63.71759496 16.22361907 70.29264168 20.78125 77.1328125 C22.69933613 79.01262444 22.69933613 79.01262444 24.84375 80.0703125 C25.51535156 80.45058594 26.18695313 80.83085938 26.87890625 81.22265625 C32.3464375 83.83853876 37.71121277 84.17411168 43.453125 82.2265625 C48.75479411 79.7796383 52.13558547 77.53917045 54.78125 72.1328125 C55.94329126 68.57813091 55.93831237 65.1594293 55.98657227 61.43652344 C55.99647186 60.77269653 56.00637146 60.10886963 56.01657104 59.42492676 C56.0480626 57.23904948 56.07289437 55.0531505 56.09765625 52.8671875 C56.11823645 51.34832201 56.13923321 49.82946212 56.16062927 48.31060791 C56.21573984 44.31909725 56.26519753 40.32753585 56.31347656 36.3359375 C56.36377217 32.2603709 56.41941611 28.1848777 56.47460938 24.109375 C56.58205619 16.11724796 56.68303645 8.12505834 56.78125 0.1328125 C63.38125 0.1328125 69.98125 0.1328125 76.78125 0.1328125 C76.84926368 9.21734694 76.90420256 18.30170984 76.93668652 27.38644218 C76.95228406 31.6057068 76.97341302 35.82478687 77.00756836 40.04394531 C77.04037437 44.1223543 77.05814737 48.20058674 77.06588173 52.27911758 C77.07138739 53.82830709 77.08213773 55.3774879 77.09844017 56.92660141 C77.23764596 70.71371766 75.60053026 81.62409033 65.96484375 92.109375 C58.22304636 99.46017252 48.31768235 102.51592536 37.78125 103.1328125 C25.40496462 102.76077987 14.71255629 100.00141642 5.34375 91.3828125 C-5.52065149 79.43422957 -5.53371389 64.4958956 -5.44921875 49.1171875 C-5.44802292 47.7256881 -5.44757464 46.33418788 -5.4478302 44.94268799 C-5.44628246 42.05858141 -5.4381161 39.17460199 -5.42456055 36.29052734 C-5.40738009 32.58829308 -5.40375255 28.88619512 -5.40450573 25.18392563 C-5.4042348 22.32558891 -5.39876924 19.46728217 -5.39150429 16.60895538 C-5.38832024 15.24215165 -5.38635083 13.87534453 -5.38561058 12.50853729 C-5.38345509 10.61342648 -5.37392973 8.71832829 -5.36401367 6.82324219 C-5.36020187 5.74548523 -5.35639008 4.66772827 -5.35246277 3.55731201 C-5.12866002 -0.50071226 -3.64146565 0.00523629 0 0 Z" transform="translate(186.219 1.867)"/><path d="M0 0 C21.78 0 43.56 0 66 0 C66 6.27 66 12.54 66 19 C50.82 19 35.64 19 20 19 C20 25.6 20 32.2 20 39 C32.54 39 45.08 39 58 39 C58 44.94 58 50.88 58 57 C45.46 57 32.92 57 20 57 C20 65.25 20 73.5 20 82 C35.18 82 50.36 82 66 82 C66 87.94 66 93.88 66 100 C44.22 100 22.44 100 0 100 C0 67 0 34 0 0 Z" transform="translate(98 2)"/><path d="M0 0 C6.27 0 12.54 0 19 0 C19.33 14.52 19.66 29.04 20 44 C23.63 39.38 27.26 34.76 31 30 C33.20948134 27.38944203 35.4181962 24.80485509 37.6875 22.25 C46.37215613 12.81577552 46.37215613 12.81577552 53.44921875 2.24609375 C57.73185777 -1.52498961 62.76954291 -0.51912976 68.25 -0.3125 C69.37664062 -0.28994141 70.50328125 -0.26738281 71.6640625 -0.24414062 C74.44405232 -0.18524254 77.22135332 -0.10304201 80 0 C78.26965049 2.98739754 76.53595758 5.72474465 74.25 8.3125 C73.46955322 9.20316162 73.46955322 9.20316162 72.67333984 10.11181641 C71.84503662 11.04646729 71.84503662 11.04646729 71 12 C69.8248888 13.34059208 68.65042012 14.68174761 67.4765625 16.0234375 C66.89036133 16.69213867 66.30416016 17.36083984 65.70019531 18.04980469 C62.77674925 21.4031199 59.90766308 24.801674 57.04516602 28.20703125 C54.69819461 30.99807084 52.3351868 33.772365 49.94140625 36.5234375 C49.43883301 37.10528809 48.93625977 37.68713867 48.41845703 38.28662109 C47.45984529 39.39567767 46.4962785 40.50047866 45.52685547 41.60009766 C42.96397934 44.5788331 41.21831907 47.25556173 40 51 C40.83402344 51.88300781 41.66804688 52.76601563 42.52734375 53.67578125 C48.48635402 60.01872775 54.24033183 66.41437841 59.68359375 73.2109375 C62.39316198 76.47338558 65.23614353 79.58414214 68.125 82.6875 C68.63659668 83.23720459 69.14819336 83.78690918 69.67529297 84.35327148 C70.66343678 85.41419053 71.65171312 86.47498615 72.64013672 87.53564453 C74.50902688 89.54814062 76.35751218 91.57706702 78.1875 93.625 C78.71730469 94.21539062 79.24710937 94.80578125 79.79296875 95.4140625 C81 97 81 97 82 100 C77.98015717 100.23368566 73.96206913 100.3748607 69.9375 100.5 C68.80376953 100.56703125 67.67003906 100.6340625 66.50195312 100.703125 C58.23092147 100.89603536 58.23092147 100.89603536 54.83374023 98.4230957 C53.03536751 96.37250163 51.51697928 94.26472903 50 92 C49.03060188 90.83392851 48.04555841 89.68062836 47.04296875 88.54296875 C46.09112192 87.42449952 45.13929936 86.30600963 44.1875 85.1875 C39.74786104 79.9823097 35.21658046 74.89151524 30.546875 69.890625 C26.87664767 65.72502957 23.46819719 61.33524649 20 57 C19.67 71.19 19.34 85.38 19 100 C12.73 100 6.46 100 0 100 C0 67 0 34 0 0 Z" transform="translate(404 2)"/><path d="M0 0 C6.27 0 12.54 0 19 0 C19 33 19 66 19 100 C12.73 100 6.46 100 0 100 C0 67 0 34 0 0 Z" transform="translate(505 2)"/><path d="M0 0 C7.9661916 5.69617948 13.03461263 13.3412502 14.77734375 22.93359375 C16.18226248 34.06244439 14.20648575 43.41740432 7.3125 52.375 C1.10426759 59.19752067 -7.05003535 63.86891765 -16.3515625 64.578125 C-28.28189911 64.76699576 -37.58189573 61.9741915 -46.44140625 53.74609375 C-53.41565262 46.21250932 -56.04858773 37.21509541 -55.8984375 27.125 C-55.23554281 18.48281732 -52.58351662 11.71422516 -46.6875 5.375 C-46.11128906 4.7459375 -45.53507813 4.116875 -44.94140625 3.46875 C-32.79407679 -8.45129055 -14.04815174 -8.54279498 0 0 Z M-41.6875 12.375 C-47.02322733 19.85150547 -47.57710743 27.39617148 -46.6875 36.375 C-44.27970875 44.52098535 -39.08032074 50.28075859 -31.78125 54.46875 C-25.63156372 57.19074229 -18.63472396 57.52575808 -12.1953125 55.6484375 C-3.52391492 52.05725265 1.36932232 46.76407124 5.3125 38.375 C7.54705485 31.67133544 6.92306668 24.0704634 4.41796875 17.5078125 C0.98551068 10.8854729 -4.02428947 6.51802384 -10.6875 3.375 C-22.40308284 -0.22231589 -33.55888519 3.48630692 -41.6875 12.375 Z" transform="translate(645.688 122.625)"/><path d="M0 0 C3.9508375 2.86528028 7.43674222 6.09123588 10.77734375 9.640625 C9.6256102 12.10862547 8.7295081 13.68846065 6.77734375 15.640625 C4.90234375 15.578125 4.90234375 15.578125 2.77734375 14.640625 C2.17921875 13.8775 1.58109375 13.114375 0.96484375 12.328125 C-2.47561761 8.10127247 -6.83764542 5.69160295 -12.22265625 4.640625 C-19.86413 3.89600855 -26.5782569 4.59965299 -33.22265625 8.640625 C-38.97541077 13.63501264 -42.79804323 19.24588029 -43.53515625 26.875 C-43.82707862 35.37723917 -43.21957452 42.1219851 -37.45703125 48.63671875 C-31.71488165 54.07367536 -26.12761769 56.71344757 -18.22265625 57.015625 C-11.2701687 56.7806715 -5.14360805 54.6982699 -0.22265625 49.640625 C2.1565053 45.74233665 3.66785864 42.07856546 4.77734375 37.640625 C-1.82265625 37.640625 -8.42265625 37.640625 -15.22265625 37.640625 C-15.22265625 35.000625 -15.22265625 32.360625 -15.22265625 29.640625 C-5.65265625 29.640625 3.91734375 29.640625 13.77734375 29.640625 C13.77734375 41.71824941 11.75261384 49.19196092 3.71484375 58.265625 C-2.30219599 64.02716412 -9.55071643 65.83975786 -17.72265625 66.140625 C-28.40320106 65.78503017 -37.53624629 61.74270734 -44.84765625 53.953125 C-51.87372644 45.62132495 -54.04378306 36.34568568 -53.22265625 25.640625 C-51.34159325 14.16295248 -45.52480303 6.43696092 -36.22265625 -0.359375 C-25.51938815 -6.39654895 -10.52010204 -6.43408701 0 0 Z" transform="translate(517.223 121.36)"/><path d="M0 0 C2.64 0 5.28 0 8 0 C8 8.91 8 17.82 8 27 C18.89 27 29.78 27 41 27 C41 18.09 41 9.18 41 0 C43.97 0 46.94 0 50 0 C50 22.44 50 44.88 50 68 C47.03 68 44.06 68 41 68 C41 57.11 41 46.22 41 35 C30.11 35 19.22 35 8 35 C8 45.89 8 56.78 8 68 C5.36 68 2.72 68 0 68 C0 45.56 0 23.12 0 0 Z" transform="translate(379 118)"/><path d="M0 0 C23.60625 0 23.60625 0 29.12109375 4.875 C33.98239252 10.19601917 35.37138441 14.19919961 35.27734375 21.3671875 C34.69075989 26.93560332 32.22488208 31.18586032 28.0625 34.875 C25.35641701 36.75269024 23.05073414 37.85403895 20 39 C22.03857253 42.00211303 24.08143181 45.00128581 26.125 48 C26.69476562 48.83917969 27.26453125 49.67835938 27.8515625 50.54296875 C31.08054021 55.27635654 34.38602263 59.90199686 37.92919922 64.40625 C39 66 39 66 39 68 C35.52393463 68.56005209 32.46104825 68.72370851 29 68 C26.00897501 65.486729 24.21757644 62.40737994 22.25 59.0625 C21.72535156 58.23169922 21.20070313 57.40089844 20.66015625 56.54492188 C19.60925995 54.87775923 18.57070021 53.20275335 17.54492188 51.52001953 C15.97859461 48.96508432 14.3743973 46.44183392 12.734375 43.93359375 C12.25709961 43.20068115 11.77982422 42.46776855 11.28808594 41.71264648 C10.09544781 39.86188608 10.09544781 39.86188608 8 39 C8 48.57 8 58.14 8 68 C5.36 68 2.72 68 0 68 C0 45.56 0 23.12 0 0 Z M8 8 C8 15.59 8 23.18 8 31 C16.42991867 31.32937836 16.42991867 31.32937836 23 28 C26.01872504 24.98127496 26.83354705 22.24455029 27 18 C25.81291476 13.88011593 24.87935234 11.66487616 21.4375 9.0625 C17.00732218 7.50782288 17.00732218 7.50782288 8 8 Z" transform="translate(544 118)"/><path d="M0 0 C23.60625 0 23.60625 0 29.12109375 4.875 C33.98239252 10.19601917 35.37138441 14.19919961 35.27734375 21.3671875 C34.69075989 26.93560332 32.22488208 31.18586032 28.0625 34.875 C25.35641701 36.75269024 23.05073414 37.85403895 20 39 C22.03857253 42.00211303 24.08143181 45.00128581 26.125 48 C26.69476563 48.83917969 27.26453125 49.67835938 27.8515625 50.54296875 C31.08054021 55.27635654 34.38602263 59.90199686 37.92919922 64.40625 C39 66 39 66 39 68 C35.52393463 68.56005209 32.46104825 68.72370851 29 68 C26.00897501 65.486729 24.21757644 62.40737994 22.25 59.0625 C21.72535156 58.23169922 21.20070313 57.40089844 20.66015625 56.54492188 C19.60925995 54.87775923 18.57070021 53.20275335 17.54492188 51.52001953 C15.97859461 48.96508432 14.3743973 46.44183392 12.734375 43.93359375 C12.25709961 43.20068115 11.77982422 42.46776855 11.28808594 41.71264648 C10.09544781 39.86188608 10.09544781 39.86188608 8 39 C8 48.57 8 58.14 8 68 C5.36 68 2.72 68 0 68 C0 45.56 0 23.12 0 0 Z M8 8 C8 15.59 8 23.18 8 31 C16.42991867 31.32937836 16.42991867 31.32937836 23 28 C26.01872504 24.98127496 26.83354705 22.24455029 27 18 C25.81291476 13.88011593 24.87935234 11.66487616 21.4375 9.0625 C17.00732218 7.50782288 17.00732218 7.50782288 8 8 Z" transform="translate(264 118)"/><path d="M0 0 C23.60625 0 23.60625 0 29.12109375 4.875 C33.98239252 10.19601917 35.37138441 14.19919961 35.27734375 21.3671875 C34.69075989 26.93560332 32.22488208 31.18586032 28.0625 34.875 C25.35641701 36.75269024 23.05073414 37.85403895 20 39 C22.03857253 42.00211303 24.08143181 45.00128581 26.125 48 C26.69476562 48.83917969 27.26453125 49.67835938 27.8515625 50.54296875 C31.08054021 55.27635654 34.38602263 59.90199686 37.92919922 64.40625 C39 66 39 66 39 68 C35.52393463 68.56005209 32.46104825 68.72370851 29 68 C26.00897501 65.486729 24.21757644 62.40737994 22.25 59.0625 C21.72535156 58.23169922 21.20070313 57.40089844 20.66015625 56.54492188 C19.60925995 54.87775923 18.57070021 53.20275335 17.54492188 51.52001953 C15.97859461 48.96508432 14.3743973 46.44183392 12.734375 43.93359375 C12.25709961 43.20068115 11.77982422 42.46776855 11.28808594 41.71264648 C10.09544781 39.86188608 10.09544781 39.86188608 8 39 C8 48.57 8 58.14 8 68 C5.36 68 2.72 68 0 68 C0 45.56 0 23.12 0 0 Z M8 8 C8 15.59 8 23.18 8 31 C16.42991867 31.32937836 16.42991867 31.32937836 23 28 C26.01872504 24.98127496 26.83354705 22.24455029 27 18 C25.81291476 13.88011593 24.87935234 11.66487616 21.4375 9.0625 C17.00732218 7.50782288 17.00732218 7.50782288 8 8 Z" transform="translate(3 118)"/><path d="M0 0 C2.25552287 2.25552287 3.01783087 4.0629389 4.2590332 6.99365234 C4.70322098 8.03588959 5.14740875 9.07812683 5.60505676 10.15194702 C6.08214584 11.28516388 6.55923492 12.41838074 7.05078125 13.5859375 C7.54660202 14.75323395 8.04242279 15.9205304 8.55326843 17.12319946 C9.87495636 20.23741196 11.19236772 23.3533648 12.5078125 26.47021484 C13.82899203 29.5975943 15.15603214 32.72248397 16.48242188 35.84765625 C21.35518963 47.33829878 21.35518963 47.33829878 23.67398071 52.85662842 C24.5909205 55.03026383 25.51713226 57.20000269 26.45077515 59.36651611 C26.90940948 60.44004333 27.36804382 61.51357056 27.84057617 62.61962891 C28.25546799 63.58204498 28.6703598 64.54446106 29.0978241 65.53604126 C30 68 30 68 30 71 C27.03 71 24.06 71 21 71 C19.82905995 68.2100561 18.66309073 65.41821403 17.5 62.625 C17.16613281 61.8309375 16.83226562 61.036875 16.48828125 60.21875 C16.01455078 59.07792969 16.01455078 59.07792969 15.53125 57.9140625 C15.23798828 57.2123291 14.94472656 56.5105957 14.64257812 55.78759766 C14 54 14 54 14 52 C4.76 52.33 -4.48 52.66 -14 53 C-16.26142851 58.54855996 -16.26142851 58.54855996 -18.51733398 64.09936523 C-18.79907471 64.78716064 -19.08081543 65.47495605 -19.37109375 66.18359375 C-19.65911865 66.89056396 -19.94714355 67.59753418 -20.24389648 68.32592773 C-21 70 -21 70 -22 71 C-25.00003445 71.14177857 -27.99757235 71.04228771 -31 71 C-28.99452686 64.58914985 -26.57553078 58.47558 -23.83203125 52.34765625 C-23.23427132 50.99914833 -23.23427132 50.99914833 -22.62443542 49.62339783 C-21.35765101 46.76803169 -20.0851987 43.91523415 -18.8125 41.0625 C-17.978137 39.18441295 -17.14414983 37.3061589 -16.31054688 35.42773438 C-14.67319952 31.73965258 -13.03249868 28.05309166 -11.38916016 24.36767578 C-9.79752744 20.79660425 -8.21422642 17.2220216 -6.63818359 13.64404297 C-6.26843918 12.80634872 -5.89869476 11.96865448 -5.51774597 11.10557556 C-4.82099584 9.52628388 -4.12601443 7.94621033 -3.43305969 6.36524963 C-1.11202815 1.11202815 -1.11202815 1.11202815 0 0 Z M-1 20 C-2.50884213 23.43368594 -4.00553401 26.87253549 -5.5 30.3125 C-6.14388672 31.77719727 -6.14388672 31.77719727 -6.80078125 33.27148438 C-7.40986328 34.67817383 -7.40986328 34.67817383 -8.03125 36.11328125 C-8.40830078 36.97735596 -8.78535156 37.84143066 -9.17382812 38.73168945 C-10.17111511 41.06746104 -10.17111511 41.06746104 -10 44 C-3.4 44 3.2 44 10 44 C8.07086147 38.21258441 6.10959798 32.56964393 3.8125 26.9375 C3.53986328 26.26267578 3.26722656 25.58785156 2.98632812 24.89257812 C2.32664689 23.26073506 1.66368579 21.63021848 1 20 C0.34 20 -0.32 20 -1 20 Z" transform="translate(224 115)"/><path d="M0 0 C2.64 0 5.28 0 8 0 C8.00364563 0.59611084 8.00729126 1.19222168 8.01104736 1.80639648 C8.05300657 8.0365229 8.12244572 14.26592182 8.20751953 20.49560547 C8.23566532 22.81747139 8.25691149 25.13943199 8.27099609 27.46142578 C8.29251355 30.80810799 8.33921124 34.15365949 8.390625 37.5 C8.39185364 38.5305249 8.39308228 39.5610498 8.39434814 40.62280273 C8.51933596 46.83721235 9.28398615 51.86891345 13 57 C17.64011019 60.45310526 22.41185479 60.7323781 28 60 C32.70600353 58.31294213 35.25581658 56.16709334 38 52 C38.95123924 49.02032067 39.14789655 46.25704451 39.20532227 43.13964844 C39.22526749 42.17895447 39.24521271 41.2182605 39.26576233 40.22845459 C39.29083107 38.68451019 39.29083107 38.68451019 39.31640625 37.109375 C39.33718735 36.04962463 39.35796844 34.98987427 39.37937927 33.89801025 C39.44472186 30.51540562 39.50368881 27.13272388 39.5625 23.75 C39.60569975 21.45572122 39.64931451 19.16145021 39.69335938 16.8671875 C39.8003876 11.24487298 39.90218239 5.6224819 40 0 C42.64 0 45.28 0 48 0 C48.10196962 7.07995205 48.17170349 14.15971257 48.21972656 21.24023438 C48.23976034 23.64557981 48.26699522 26.05087703 48.30175781 28.45605469 C48.35063808 31.92655378 48.37305205 35.39640526 48.390625 38.8671875 C48.41127014 39.93113739 48.43191528 40.99508728 48.45318604 42.09127808 C48.45522996 48.99381972 47.55425321 54.97127888 44 61 C38.41404575 66.58393639 32.61365851 69.02207283 24.75 69.375 C17.52515892 69.22735338 11.62891418 67.18143943 6.0625 62.5625 C1.63035515 57.05589579 -0.13092473 52.89358908 -0.11352539 45.86425781 C-0.11344986 44.84350159 -0.11337433 43.82274536 -0.11329651 42.77105713 C-0.10813522 41.67613953 -0.10297394 40.58122192 -0.09765625 39.453125 C-0.0962413 38.3267865 -0.09482635 37.200448 -0.09336853 36.03997803 C-0.08777199 32.44329165 -0.0752201 28.84666756 -0.0625 25.25 C-0.05748455 22.81119882 -0.05292172 20.37239666 -0.04882812 17.93359375 C-0.0378037 11.95570792 -0.02106898 5.97785841 0 0 Z" transform="translate(673 118)"/><path d="M0 0 C11.55 0 23.1 0 35 0 C35 2.64 35 5.28 35 8 C26.09 8 17.18 8 8 8 C8 14.27 8 20.54 8 27 C16.91 27 25.82 27 35 27 C35 29.31 35 31.62 35 34 C34 35 34 35 31.49975586 35.11352539 C30.41573486 35.10828857 29.33171387 35.10305176 28.21484375 35.09765625 C26.46010742 35.09282227 26.46010742 35.09282227 24.66992188 35.08789062 C23.43822266 35.07951172 22.20652344 35.07113281 20.9375 35.0625 C19.08415039 35.05573242 19.08415039 35.05573242 17.19335938 35.04882812 C14.12888587 35.03699618 11.06443707 35.01906008 8 35 C8 43.25 8 51.5 8 60 C16.91 60 25.82 60 35 60 C35 62.64 35 65.28 35 68 C23.45 68 11.9 68 0 68 C0 45.56 0 23.12 0 0 Z" transform="translate(153 118)"/><path d="M0 0 C11.55 0 23.1 0 35 0 C35 2.64 35 5.28 35 8 C26.09 8 17.18 8 8 8 C8 14.27 8 20.54 8 27 C16.91 27 25.82 27 35 27 C35 29.31 35 31.62 35 34 C34 35 34 35 31.49975586 35.11352539 C30.41573486 35.10828857 29.33171387 35.10305176 28.21484375 35.09765625 C26.46010742 35.09282227 26.46010742 35.09282227 24.66992188 35.08789062 C23.43822266 35.07951172 22.20652344 35.07113281 20.9375 35.0625 C19.08415039 35.05573242 19.08415039 35.05573242 17.19335938 35.04882812 C14.12888587 35.03699618 11.06443707 35.01906008 8 35 C8 43.25 8 51.5 8 60 C16.91 60 25.82 60 35 60 C35 62.64 35 65.28 35 68 C23.45 68 11.9 68 0 68 C0 45.56 0 23.12 0 0 Z" transform="translate(53 118)"/><path d="M0 0 C1.703125 1.6875 1.703125 1.6875 2.09375 4.16796875 C2.04734375 5.06128906 2.0009375 5.95460937 1.953125 6.875 C1.91703125 7.77605469 1.8809375 8.67710937 1.84375 9.60546875 C1.79734375 10.29253906 1.7509375 10.97960937 1.703125 11.6875 C0.88328125 11.19378906 0.0634375 10.70007813 -0.78125 10.19140625 C-1.85890625 9.55074219 -2.9365625 8.91007813 -4.046875 8.25 C-5.64789063 7.29287109 -5.64789063 7.29287109 -7.28125 6.31640625 C-13.47922127 2.96853835 -20.08858069 2.7057731 -26.92578125 4.30078125 C-34.19303026 6.81935457 -38.49568972 10.97550618 -42.390625 17.52734375 C-45.64657423 24.65726961 -45.59430852 33.95534729 -42.921875 41.25 C-42.385625 42.384375 -41.849375 43.51875 -41.296875 44.6875 C-40.9875 45.47125 -40.678125 46.255 -40.359375 47.0625 C-38.94536733 49.22509997 -37.67081243 49.66093246 -35.296875 50.6875 C-33.54683566 51.7032571 -31.81147381 52.74120753 -30.078125 53.78515625 C-24.4418094 56.64039508 -17.53407727 56.62166408 -11.5625 54.8984375 C-8.12340375 53.56553333 -5.08619469 52.28447645 -2.1328125 50.05078125 C-0.296875 48.6875 -0.296875 48.6875 1.703125 48.6875 C1.703125 51.9875 1.703125 55.2875 1.703125 58.6875 C0.14460745 59.50761312 -1.41889216 60.31826213 -2.984375 61.125 C-3.85449219 61.57746094 -4.72460938 62.02992188 -5.62109375 62.49609375 C-14.66967245 66.52502295 -25.30940136 65.50407493 -34.3984375 62.15234375 C-42.14516201 58.23722018 -49.23882865 51.43025816 -52.19140625 43.19140625 C-55.32606137 32.8713773 -54.98705326 23.88074711 -51.296875 13.6875 C-46.77833509 5.41054839 -39.20355782 -1.28758885 -30.296875 -4.3125 C-19.49820405 -6.83756236 -9.62998876 -5.50285072 0 0 Z" transform="translate(364.297 122.313)"/><path d="M0 0 C3.20196975 2.71471348 5.52300119 4.70701074 6 9 C2.375 12 2.375 12 -1 12 C-2.37868281 10.37064759 -3.71274093 8.70250393 -5 7 C-8.77438614 5.11280693 -13.4238055 5.50225437 -17.375 6.75 C-20.35907886 9.04544528 -20.88019797 11.29616306 -21.5 14.9375 C-20.9052764 18.58018208 -19.64458997 19.5123348 -16.82275391 21.73999023 C-13.70997383 23.89175262 -10.36028883 25.46775525 -6.9375 27.0625 C4.54917209 32.44854401 4.54917209 32.44854401 7.8125 38.1875 C10.01046327 45.24411892 9.73694476 51.22128433 6.4765625 57.91796875 C3.22622252 62.5011201 -1.75089297 65.25029766 -7 67 C-13.34107405 67.58567647 -19.47715348 67.43033946 -25 64 C-29.96085166 59.65558553 -32.78604859 55.47440751 -34 49 C-29.63615988 46.93929772 -29.63615988 46.93929772 -26.953125 47.1953125 C-25 48 -25 48 -23.875 49.77734375 C-23.58625 50.49019531 -23.2975 51.20304687 -23 51.9375 C-21.97717297 54.45347185 -21.43065823 55.71228752 -19.15234375 57.234375 C-14.43588488 58.91209903 -9.63412816 58.69537369 -5.0625 56.75 C-2.33597598 54.43658568 -1.22851132 52.34460874 -0.62890625 48.81640625 C-0.60699219 48.07261719 -0.58507812 47.32882813 -0.5625 46.5625 C-0.52253906 45.82128906 -0.48257813 45.08007812 -0.44140625 44.31640625 C-1.30543415 40.73340942 -3.19106229 39.3321575 -6 37 C-8.56984363 35.49253823 -11.22898541 34.23731586 -13.9375 33 C-19.88488625 30.26786738 -25.54607554 27.59577948 -29.3515625 22.01953125 C-30.89254887 17.22019419 -30.85737342 11.65980619 -29.3125 6.8671875 C-27.09582605 2.60009014 -24.16293832 0.25492493 -20 -2 C-12.98933989 -4.14174953 -6.41863453 -3.57962311 0 0 Z" transform="translate(131 120)"/><path d="M0 0 C23.11951014 0 23.11951014 0 30.375 5.1875 C34.44545284 9.54869947 35.74581179 13.6275767 36.375 19.5 C35.72268836 25.58824196 34.33649027 30.1389382 29.75 34.375 C22.76771398 39.72808595 16.95988008 39 8 39 C8 48.57 8 58.14 8 68 C5.36 68 2.72 68 0 68 C0 45.56 0 23.12 0 0 Z M8 8 C8 15.59 8 23.18 8 31 C16.72756814 31.16840774 16.72756814 31.16840774 24 28 C27.44193411 24.27527788 27.56668737 21.32320193 27.421875 16.4140625 C26.7691524 12.67903871 25.02990161 11.13470341 22 9 C17.0702801 7.59577396 17.0702801 7.59577396 8 8 Z" transform="translate(738 118)"/></svg>