<svg xmlns="http://www.w3.org/2000/svg" viewBox="0 0 4096 4096"><g fill="#250" class="faces"><path d="m1903.477 476.883 3.727 2.564 10.664 329.703-23.5 134.361-167.672-287.617zM1457.119 665.414l194.002 1.217-374.35 252.746-363.465 102.342 200.715-228.926zM1685.08 672.662l-171.672 266.846a12.001 12.001 0 0 0-1.81 8.018l28.305 220.856-240.016-235.654z"/><path d="m1711.031 676.678 177.699 304.816 36.371 464.215-137.076 11.148-61.807-135.633a12.001 12.001 0 0 0-3.504-4.459L1567.481 1194.758 1535.959 948.814ZM1939.809 823.004l391.145 78.4-414.844 102.949a12 12 0 0 0-1.432 1.057l-2.096-26.736zM1283.195 949.973l260.402 255.666-27.154 345.147-172.713 138.49-285.92-383.17zM1254.387 950.611l-221.103 349.369-307.846 287.51 144.781-516.629 14.369-16.389a12 12 0 0 0 .664.078zM1031.791 1334.215l-20.59 212.447a12 12 0 0 0-.234.416l-36.812 311.295-198.109 112.596-60.59-341.314zM1055.092 1342.588l269.904 361.711-.562.449a12 12 0 0 0-3.629-4.551l-285.1-157.586zM1032.621 1568.33l273.447 151.145-304.875 244.467-3.301-98.842a12.001 12.001 0 0 0-.281-.715zM1529.291 1571.246l343.106 151.498-344.5 580.852-516.307-317.227zM2738.225 1712.44l165.908 340.564-510.119-319.369zM2769.789 1722.434l267.459 97.395-40.176 461.846-51.891-199.109a12.001 12.001 0 0 0-.793-1.08 12 12 0 0 0-.045-.74zM1896.297 1729.494l444.057 6.514-144.725 539.262-251.111 39.879a12.001 12.001 0 0 0-.018.01l-415.51 31.889 12.723-20.271a12.001 12.001 0 0 0 .607-.451zM2363.387 1742.775l546.365 342.061a12 12 0 0 0-.02.021l-140.66 420.08-85.477 233.887-345.459-318.644a12.001 12.001 0 0 0-.164-.068 12 12 0 0 0-.047-.131L2217.584 2286.051ZM3059.307 1843.193l211.422 273.236 163.268 612.02-408.088-310.678-10.822-66.228zM1014.674 2016.432l500.484 307.504-17.531 27.932-88.773 44.289-209.26 93.74zM1091.816 2279.914l87.787 224.771-97.779 245.115-164.91-297.644zM2197.238 2299.315l122.836 136.705a12 12 0 0 0 .145.068l142.457 253.184-183.303 35.357-260.572-220.828-56.482-167.178zM1388.791 2431.441l-103.637 213.416-75.965-132.961zM3031.539 2452.223l414.191 315.326a12 12 0 0 0 1.617.426l195.035 189.219-343.316-24.76-222.787-206.436zM1193.926 2533.561l80.27 140.494 4.475 17.656-169.83 55.143zM2782.949 2536.887l104.92 178.266-181.639 31.66zM1294.727 2711.732l110.176 14.537 78.338 200.561-263.098-94.1a12.001 12.001 0 0 0-.014 0l-117.541-45.453-6.182-11.156zM2464.973 2713.272l-188.359 637.217-101.029-156.912 109.828-445.67zM2890.572 2739.045l-168.77 633.471-88-177.117 65.893-423.086z"/><path d="m1053.48 2748.164 30.223 54.551a12.001 12.001 0 0 0 6.168 5.377l111.436 43.092-125.055 401.822-104.865-68.119zM958.146 3204.904l111.031 72.127L1041.414 3394H813.463l60.059-131.66zM2159.574 3213.047l105.828 164.359-16.412 16.594h-221.451l56.184-129.334zM2616.402 3214.315l89.275 179.686h-223.129l58.58-127.988z"/></g><path fill="none" stroke="#111" stroke-linecap="round" stroke-linejoin="round" stroke-width="24" d="M 1900,977 1711.7,654 1902,461.3 l 17,11.7 10.9,337 -29.4,168.1 37.5,478.6 -157.4,12.8 -65.3,-143.3 L 1556,1201 1528,1556.9 990,1988.3 985.9,1865.5 767.2,1989.8 702.5,1625.3337 1042.6,1307.7 1281,931 1556,1201 M 702.34601,1625.4233 859.4,1065 1107,782.6 1455,653.4 1710,655 m 1.2089,-0.77485 L 1523.5,946 l 32.6411,254.6798 M 1281,931 1685.6613,657.78904 M 1931,809 l 454,91 m 0.5375,0.22312 L 1919,1016 M 882,1043 1281.3595,930.55092 M 1045,1309 l 294,394 m -293,-391 -23,237.3 292,161.4 m -292.1153,-162.2129 -37.65403,318.3976 M 1529,1558 l 361,159.4 466.3975,6.8411 577.1719,361.3494 L 3003,2352 3050,1811.7 2746,1701 2933.5558,2086 M 2355.2307,1724 2745,1700 M 1889.4129,1717.5767 1532,2320.2 990.48712,1987.4871 1193,2506 l 221,-99 -128.2,264 7.2,28.4 120.5,15.9 L 1504,2947 1216.1012,2844.0294 1083,3271.7 958,3190.5 864,3254.3 794.8,3406 h 256.1 l 31.9895,-134.7769 M 2356,1724 l -150.8,561.9 -258.8,41.1 62.1,183.8 267.5,226.7 205.3,-39.6 L 2330,2429 2690.7,2761.7 2907,2724 2725.3,3406 H 2463.8589 L 2531.6,3258 2621,3196.6 2725.0391,3406 M 3050.0061,1811.5639 3281.7,2111 3454.3,2758 3679,2976 M 2921.1116,2088.6673 2780.4,2508.9 2907,2724 M 1086,2268.8 902,2450 1094.2,2796.9 1216,2844 m 989,-554 124,138 M 1531.8847,2319.8589 1506,2361.1 1414,2407 m 91.9755,-46.1546 L 1947,2327 m 1056,25 62.1,380 228.9,212.1 373,26.9 M 3018.2191,2427 3453,2758 M 1292,2700 1088.2156,2766.1653 1192,2506 l 93.8884,164.3327 M 2780.4442,2508.7789 2689,2759 m -207,-61 -201.3,681 -117.7,-182.8 -88.9,60.5 -64.8564,149.3 H 2254 l 26.7812,-27.0785 M 958.11055,3190.5548 1047.1075,2717.1116 M 2275,2740 2162.346,3197.1411 M 2689,2763 l -67.5558,433.7769" class="lines"/></svg>