<?xml version="1.0" standalone="no"?>
<!DOCTYPE svg PUBLIC "-//W3C//DTD SVG 20010904//EN"
 "http://www.w3.org/TR/2001/REC-SVG-20010904/DTD/svg10.dtd">
<svg version="1.0" xmlns="http://www.w3.org/2000/svg"
 width="1254.000000pt" height="1254.000000pt" viewBox="0 0 1254.000000 1254.000000"
 preserveAspectRatio="xMidYMid meet">

<g transform="translate(0.000000,1254.000000) scale(0.100000,-0.100000)"
fill="#000000" stroke="none">
<path d="M5716 10769 l-325 -321 -405 1 c-319 1 -412 -1 -442 -12 -36 -13
-410 -157 -853 -329 l-183 -72 -92 -100 c-50 -55 -145 -159 -211 -230 -67 -72
-208 -227 -314 -344 l-194 -214 -114 -396 c-109 -380 -182 -642 -280 -1002
-52 -193 -100 -358 -108 -370 -3 -5 5 -65 19 -132 14 -68 64 -321 112 -563 50
-258 92 -446 100 -455 12 -13 17 -13 37 0 107 68 649 391 651 389 1 -2 -5 -83
-14 -179 l-15 -175 74 -180 c40 -99 115 -285 166 -413 l93 -232 -309 -307
c-170 -168 -309 -314 -309 -323 0 -10 64 -118 142 -241 298 -473 327 -520 323
-532 -3 -6 -23 -120 -45 -252 -48 -283 -174 -1002 -198 -1129 l-17 -89 -150
-103 -150 -102 -119 -240 c-75 -149 -117 -245 -113 -256 6 -14 47 -16 445 -16
340 0 442 3 449 13 5 6 33 102 62 212 63 242 68 261 127 450 25 83 104 341
175 575 71 234 134 439 140 457 l10 32 52 -21 c44 -17 531 -203 749 -285 37
-14 75 -23 83 -19 30 11 35 -3 -223 651 -26 66 -54 127 -62 135 -12 11 -56 20
-155 29 -198 18 -202 19 -214 50 -10 24 -2 45 86 217 54 106 145 286 202 401
l104 210 96 12 c132 17 640 90 1103 159 l387 58 35 -92 c19 -50 65 -176 101
-280 61 -173 70 -192 105 -219 20 -16 203 -169 406 -339 351 -294 369 -310
366 -340 -1 -17 -29 -139 -61 -271 -32 -132 -104 -427 -160 -655 -81 -333
-105 -418 -122 -432 -12 -10 -81 -61 -154 -113 l-132 -94 -106 -237 c-82 -182
-104 -240 -96 -251 17 -20 871 -19 888 1 6 7 43 120 81 250 73 246 171 565
245 796 40 124 130 414 299 957 l66 212 -56 88 c-107 166 -152 238 -276 438
-68 110 -128 207 -133 215 -5 8 56 -47 136 -124 79 -76 307 -294 507 -485
l364 -346 -7 -50 c-9 -73 -195 -1228 -199 -1241 -3 -6 -48 -42 -101 -80 -187
-134 -163 -104 -294 -369 -89 -181 -116 -244 -109 -257 8 -17 39 -18 442 -18
335 0 436 3 443 12 6 7 17 40 25 73 13 49 189 700 327 1205 206 756 235 872
221 893 -22 35 -288 475 -341 564 -27 45 -49 85 -49 90 0 5 45 139 101 298 56
160 150 434 210 610 60 176 112 327 115 335 10 28 53 -65 65 -141 36 -239 146
-871 242 -1389 30 -162 61 -328 68 -369 l14 -73 368 -342 c311 -289 372 -341
400 -343 46 -4 380 -29 967 -72 199 -15 248 -16 259 -6 8 8 10 18 5 28 -5 8
-70 70 -144 138 -75 68 -234 213 -353 322 -119 109 -217 204 -217 211 0 13
-60 234 -130 476 -21 74 -55 194 -75 265 -20 72 -47 168 -60 215 -14 47 -45
162 -70 255 -38 142 -210 767 -220 800 -2 6 -108 150 -237 321 -128 171 -281
377 -340 458 -121 163 -98 147 -322 226 -78 27 -242 85 -366 130 -124 45 -270
97 -325 116 -67 24 -107 44 -121 61 -25 29 -4 29 -384 -2 -774 -65 -759 -64
-1535 -65 l-730 -1 -225 99 c-349 155 -552 244 -710 312 -80 34 -148 65 -152
68 -4 4 1 108 12 232 10 124 23 299 30 390 17 242 30 403 33 406 2 2 77 -56
167 -127 91 -72 193 -152 226 -177 l62 -47 107 -232 c100 -217 109 -233 134
-233 36 0 429 30 468 36 17 2 34 12 37 20 3 9 -1 226 -9 482 -8 257 -17 548
-20 647 -3 99 -8 192 -10 206 -4 26 -2 27 113 54 347 80 1329 329 1340 339 17
16 5 45 -22 51 -27 7 -1309 261 -1357 269 -33 6 -37 10 -43 44 -3 20 -6 91 -6
157 0 175 -20 810 -28 880 -5 44 -11 61 -24 63 -10 2 -132 -111 -342 -319z
m324 -482 l11 -349 -37 -233 c-21 -129 -41 -232 -45 -229 -4 2 -21 28 -37 57
-124 225 -356 631 -448 784 -24 40 -44 76 -44 80 0 5 129 135 287 289 l288
281 7 -166 c3 -91 11 -323 18 -514z m-780 89 c0 -2 -37 -26 -82 -52 -76 -44
-447 -276 -663 -414 -49 -31 -182 -115 -295 -185 -113 -70 -208 -132 -212
-139 -4 -6 -5 -19 -2 -28 4 -13 -7 -20 -48 -31 -29 -8 -161 -45 -293 -82 -223
-62 -745 -209 -790 -222 -24 -7 16 39 290 337 114 124 246 268 293 321 l86 97
430 166 c237 91 469 182 516 201 l85 34 343 1 c188 0 342 -2 342 -4z m153 -73
c183 -315 308 -533 392 -683 54 -96 123 -218 152 -270 41 -72 56 -107 59 -145
2 -27 10 -257 19 -510 8 -253 17 -526 21 -607 5 -132 4 -148 -10 -148 -9 0
-105 -7 -212 -16 -108 -8 -197 -14 -199 -12 -1 2 -41 89 -89 193 -47 105 -92
201 -99 215 -7 13 -125 112 -262 220 -248 195 -250 197 -257 241 -37 248 -98
683 -98 702 0 13 37 82 81 153 77 122 275 447 398 652 30 50 56 92 57 92 1 0
22 -35 47 -77z m-246 -115 c-93 -156 -205 -340 -308 -505 l-107 -172 44 -303
c25 -167 49 -330 54 -362 5 -33 8 -61 7 -63 -5 -5 -767 763 -767 773 0 5 40
33 88 62 145 88 925 579 997 627 36 25 35 16 -8 -57z m1339 -382 c203 -41 464
-93 579 -115 116 -23 219 -44 229 -48 12 -3 -109 -38 -290 -83 -619 -155 -977
-240 -983 -234 -12 12 -2 112 34 326 19 120 35 220 35 223 0 10 31 4 396 -69z
m-2055 -722 l394 -395 -3 -82 c-4 -110 -61 -902 -68 -949 -5 -35 -24 -52 -262
-243 -141 -113 -260 -204 -264 -203 -7 3 -181 236 -353 473 -51 72 -192 263
-313 425 l-220 294 23 36 c186 294 397 623 495 775 67 105 133 207 146 228 14
20 26 37 27 37 2 0 181 -178 398 -396z m-648 139 c-81 -126 -219 -342 -308
-480 -159 -248 -164 -255 -286 -370 -68 -64 -223 -214 -344 -332 -121 -119
-297 -292 -392 -385 l-172 -169 19 69 c11 38 36 128 56 199 20 72 51 184 69
250 19 66 54 193 79 283 26 89 66 235 92 325 25 89 56 198 69 242 13 44 34
116 46 160 11 44 23 85 24 91 2 6 32 19 67 28 34 10 133 37 218 61 85 24 238
67 340 95 102 29 268 76 370 105 102 30 188 54 192 54 4 1 -59 -101 -139 -226z
m-549 -1038 c-8 -83 -25 -278 -39 -435 -13 -157 -36 -409 -50 -560 -14 -151
-29 -322 -33 -379 l-7 -105 -210 -125 c-116 -70 -263 -158 -328 -198 -110 -68
-117 -71 -121 -50 -42 196 -196 989 -196 1008 0 9 100 115 222 235 122 121
346 341 497 491 152 149 277 271 278 270 1 -2 -5 -70 -13 -152z m363 -242
c423 -570 568 -766 571 -775 9 -20 -30 -1 -206 100 -103 60 -303 176 -444 257
l-258 149 5 35 c3 20 14 149 25 286 20 253 28 320 35 313 3 -2 125 -166 272
-365z m45 -570 c205 -119 392 -228 416 -243 l44 -27 -269 -215 c-147 -118
-362 -290 -476 -382 -115 -92 -210 -166 -212 -164 -1 1 3 68 11 148 7 80 30
332 50 560 20 228 38 443 41 478 3 34 9 62 13 62 5 0 176 -97 382 -217z m2077
-213 c74 -33 137 -63 141 -67 4 -4 -69 -132 -162 -283 -94 -151 -337 -552
-540 -890 -203 -338 -372 -617 -374 -619 -7 -7 13 -20 -992 607 -471 294 -600
378 -590 388 7 6 303 243 658 525 626 500 717 572 863 690 l69 56 397 -174
c218 -96 456 -201 530 -233z m2815 -27 c24 -51 332 -637 472 -900 63 -116 114
-217 114 -223 0 -7 -7 -10 -15 -7 -18 7 -372 231 -630 397 -104 68 -260 168
-345 223 -85 55 -198 128 -250 162 -52 34 -178 115 -280 181 l-185 119 170 12
c242 16 836 63 860 67 60 10 71 7 89 -31z m401 -140 c83 -30 247 -88 365 -130
118 -42 216 -77 216 -77 1 -1 -4 -64 -12 -141 -12 -132 -80 -937 -107 -1275
l-12 -155 -53 334 c-48 295 -57 339 -82 380 -26 44 -361 670 -505 946 -37 72
-80 153 -96 181 l-27 52 81 -30 c45 -17 150 -55 232 -85z m-1615 80 c0 -8 -48
-194 -249 -964 -167 -639 -188 -720 -195 -726 -3 -3 -149 -28 -323 -54 -636
-95 -815 -121 -1178 -175 -400 -59 -717 -104 -725 -104 -3 1 19 13 48 28 52
27 54 29 238 337 457 762 777 1291 944 1563 l63 102 688 0 c379 0 689 -3 689
-7z m199 -137 c53 -35 200 -130 326 -211 270 -174 508 -327 620 -400 44 -28
197 -125 340 -215 143 -89 264 -166 269 -170 4 -5 0 -32 -9 -62 -26 -79 -251
-729 -375 -1083 -97 -276 -192 -554 -267 -775 -14 -41 -27 -77 -29 -79 -3 -4
-284 263 -574 545 -80 77 -271 260 -425 406 -154 146 -319 306 -368 355 l-87
89 59 224 c33 124 89 340 126 480 36 140 105 401 151 580 47 179 90 342 95
363 12 44 2 47 148 -47z m2547 -861 c17 -22 57 -74 88 -116 63 -86 37 -7 239
-744 47 -170 122 -440 167 -600 45 -159 92 -328 105 -375 22 -80 69 -243 81
-283 4 -12 -27 7 -78 48 -45 36 -177 140 -293 230 -211 164 -247 192 -631 494
-115 91 -231 181 -257 200 l-48 36 6 95 c10 162 46 600 100 1240 19 222 35
409 35 414 0 5 102 -127 228 -295 125 -167 241 -322 258 -344z m-6701 20 c725
-455 1230 -771 1318 -822 31 -19 57 -36 57 -38 0 -2 -7 -20 -16 -38 -18 -39
-13 -36 -464 -242 -140 -65 -308 -142 -373 -172 -66 -30 -120 -53 -121 -51 -1
2 -27 66 -58 143 -32 77 -98 239 -149 360 -98 236 -334 819 -374 923 l-25 63
38 -22 c20 -12 96 -59 167 -104z m148 -925 c42 -102 103 -250 137 -329 l61
-145 -16 -45 c-37 -112 -271 -741 -275 -741 -3 0 -30 42 -61 93 -54 88 -287
459 -354 562 -68 105 -123 193 -135 215 -11 21 4 39 271 306 156 156 286 280
290 276 3 -4 40 -90 82 -192z m3510 -16 c115 -118 166 -178 208 -247 124 -206
203 -334 348 -561 83 -132 148 -243 144 -246 -5 -4 -137 -30 -295 -60 l-287
-53 -303 254 c-464 388 -512 430 -520 453 -7 24 -163 463 -172 487 -6 13 30
21 247 53 207 31 460 71 475 75 2 1 72 -69 155 -155z m-2800 -569 c-98 -195
-181 -351 -185 -347 -9 9 -120 209 -183 330 -30 56 -45 96 -39 101 11 11 551
262 581 270 2 1 -77 -159 -174 -354z m5362 184 c66 -51 194 -152 285 -224 91
-72 289 -228 440 -345 422 -329 494 -387 650 -531 80 -74 212 -194 293 -268
81 -73 147 -134 147 -135 0 -1 -166 10 -684 48 -192 14 -362 26 -378 26 -23 0
-58 28 -181 143 -155 144 -470 435 -519 478 -29 26 -31 34 -133 589 -20 107
-42 225 -49 262 -8 45 -9 65 -2 59 6 -4 65 -50 131 -102z m-5666 -463 c62
-115 109 -212 104 -217 -9 -9 -515 -181 -519 -176 -2 1 31 95 72 207 42 113
93 255 114 315 21 61 44 125 51 144 l12 33 27 -48 c15 -27 78 -143 139 -258z
m4919 58 c65 -109 138 -228 160 -264 37 -57 40 -66 24 -72 -9 -4 -129 -28
-267 -53 -137 -25 -260 -48 -272 -50 -20 -5 -13 21 89 317 60 178 112 331 115
341 7 23 2 31 151 -219z m-4593 -349 c77 -8 147 -15 156 -15 9 0 19 -8 22 -17
3 -10 59 -154 125 -320 66 -167 116 -303 111 -303 -5 0 -50 16 -101 36 -50 19
-179 68 -287 109 -108 40 -248 93 -311 118 -246 97 -304 117 -318 112 -25 -9
-161 47 -168 69 -4 11 -3 22 2 23 239 84 594 201 609 202 11 0 83 -6 160 -14z
m3491 -2 c-15 -52 -163 -525 -266 -853 -65 -206 -166 -532 -225 -725 -58 -192
-113 -372 -122 -399 l-15 -48 -94 193 c-52 107 -115 235 -141 284 l-46 91 91
374 c210 862 240 981 246 987 5 6 525 108 564 112 8 1 11 -6 8 -16z m-4355
-183 c29 -52 57 -98 61 -101 5 -3 83 -32 176 -64 92 -32 169 -59 170 -61 2 -1
-1 -18 -6 -36 -6 -18 -41 -132 -77 -253 -128 -421 -217 -711 -245 -800 -16
-49 -34 -110 -40 -133 -9 -33 -15 -42 -27 -38 -8 4 -87 56 -174 118 -144 101
-157 113 -153 137 2 14 31 181 65 371 56 322 169 979 169 990 0 8 25 -32 81
-130z m5629 -12 c-21 -79 -65 -242 -98 -363 -33 -121 -97 -357 -142 -525 -45
-168 -108 -402 -140 -520 -32 -118 -66 -244 -75 -280 -9 -36 -21 -83 -26 -104
l-11 -39 -45 89 c-25 49 -89 179 -142 289 l-97 200 38 230 c20 127 65 406 98
620 34 215 64 399 66 411 5 18 31 25 252 68 295 56 333 63 348 65 8 1 -2 -52
-26 -141z m-5799 -1434 c127 -90 178 -131 174 -141 -3 -8 -24 -84 -47 -169
l-41 -154 -373 0 c-206 0 -374 3 -374 8 0 4 41 88 90 187 50 99 90 184 90 190
1 9 276 202 293 204 4 1 88 -56 188 -125z m3710 -170 c76 -158 139 -288 139
-290 0 -2 -162 -4 -360 -4 -200 0 -360 4 -360 9 0 5 38 92 83 194 83 184 85
187 137 223 30 21 90 63 135 95 44 32 81 59 83 59 2 0 66 -129 143 -286z
m1409 -1 c77 -157 139 -288 137 -290 -2 -2 -165 -2 -361 -1 l-357 3 98 200
c54 110 101 201 104 203 3 1 57 40 120 87 63 46 115 84 117 85 1 0 66 -129
142 -287z"/>
</g>
</svg>
