<svg xmlns="http://www.w3.org/2000/svg" viewBox="0 0 4096 4096"><defs><linearGradient id="g" x1="0" x2="0" y1="449" y2="3418" gradientUnits="userSpaceOnUse"><stop offset="0%" stop-color="#f2d060"/><stop offset="40%" stop-color="#d4af37"/><stop offset="100%" stop-color="#8b6914"/></linearGradient></defs><g fill="url(#g)" class="faces"><path d="M 1903.4766,476.88281 l 3.7265,2.56446 10.6641,329.70312 -23.5,134.36133 -167.6719,-287.61719 z"/><path d="M 1457.1191,665.4140600000001 l 194.002,1.2168 -374.3496,252.74609 -363.46486,102.34175 200.71486,-228.92573 z"/><path d="M 1685.0801,672.6621100000001 l -171.6719,266.8457 a 12.0012,12.0012 0 0 0 -1.8105,8.01758 l 28.3046,220.85551 -240.0156,-235.65434 z"/><path d="M 1711.0312999999999,676.6777300000001 l 177.6992,304.81641 36.3711,464.21486 -137.0762,11.1484 -61.8066,-135.6328 a 12.0012,12.0012 0 0 0 -3.504,-4.459 L 1567.4805,1194.7578 1535.959,948.81445 Z"/><path d="M 1939.8085999999998,823.0039100000001 l 391.1445,78.40039 -414.8437,102.9492 a 12,12 0 0 0 -1.4317,1.0567 l -2.0957,-26.73637 z"/><path d="M 1283.1952999999999,949.9726600000001 l 260.4024,255.66604 -27.1543,345.1465 -172.7129,138.4902 -285.92,-383.1699 z"/><path d="M 1254.3866999999998,950.6113300000002 l -221.1035,349.36917 -307.8457,287.5097 144.78125,-516.6289 14.36914,-16.3886 a 12,12 0 0 0 0.66406,0.078 z"/><path d="M 1031.7909999999997,1334.2148000000002 l -20.5898,212.4473 a 12,12 0 0 0 -0.2344,0.416 l -36.8125,311.2949 -198.10938,112.5958 -60.58984,-341.3145 z"/><path d="M 1055.0917999999997,1342.5879000000002 l 269.9043,361.7109 -0.5625,0.4492 a 12,12 0 0 0 -3.6289,-4.5507 l -285.0996,-157.586 z"/><path d="M 1032.6210999999996,1568.3301000000001 l 273.4473,151.1445 -304.875,244.4668 -3.30082,-98.8418 a 12.0012,12.0012 0 0 0 -0.28125,-0.7148 z"/><path d="M 1529.2909999999997,1571.2461 l 343.1055,151.498 -344.5,580.8516 -516.3067,-317.2266 z"/><path d="M 2738.2245999999996,1712.4395 l 165.9082,340.5644 -510.1191,-319.3691 z"/><path d="M 2769.7890999999995,1722.4335999999998 l 267.4589,97.3945 -40.1757,461.8457 -51.8907,-199.1093 a 12.0012,12.0012 0 0 0 -0.7929,-1.0801 12,12 0 0 0 -0.045,-0.7403 z"/><path d="M 1896.2968999999994,1729.4941 l 444.0566,6.5137 -144.7246,539.2617 -251.1113,39.8789 a 12.0012,12.0012 0 0 0 -0.018,0.01 l -415.5098,31.8886 12.7227,-20.2715 a 12.0012,12.0012 0 0 0 0.6074,-0.4511 z"/><path d="M 2363.3866999999996,1742.7754 l 546.3653,342.0605 a 12,12 0 0 0 -0.02,0.021 l -140.6601,420.0801 -85.4766,233.8867 -345.459,-318.6445 a 12.0012,12.0012 0 0 0 -0.164,-0.068 12,12 0 0 0 -0.047,-0.1308 L 2217.584,2286.0508 Z"/><path d="M 3059.3065999999994,1843.1934 l 211.4219,273.2363 163.2676,612.0195 -408.0879,-310.6777 -10.8223,-66.2285 z"/><path d="M 1014.6737999999993,2016.4316000000001 l 500.4844,307.5039 -17.5312,27.9317 -88.7735,44.2891 -209.2597,93.7402 z"/><path d="M 1091.8163999999992,2279.9141 l 87.7871,224.7714 -97.7793,245.1153 -164.91014,-297.6445 z"/><path d="M 2197.238299999999,2299.3145 l 122.8359,136.705 a 12,12 0 0 0 0.1446,0.068 l 142.457,253.1836 -183.3028,35.3574 -260.5722,-220.8281 -56.4824,-167.1778 z"/><path d="M 1388.790999999999,2431.4414 l -103.6367,213.416 -75.9648,-132.9609 z"/><path d="M 3031.539099999999,2452.2227000000003 l 414.1914,315.3261 a 12,12 0 0 0 1.6172,0.4258 l 195.0351,189.2188 -343.3164,-24.7598 -222.7871,-206.4356 z"/><path d="M 1193.925799999999,2533.5605 l 80.2695,140.4942 4.4746,17.6562 -169.8301,55.1426 z"/><path d="M 2782.949199999999,2536.8867 l 104.9199,178.2656 -181.6386,31.6602 z"/><path d="M 1294.726599999999,2711.7324 l 110.1757,14.5371 78.3379,200.5606 -263.0976,-94.0996 a 12.0012,12.0012 0 0 0 -0.014,0 l -117.541,-45.4532 -6.1816,-11.1562 z"/><path d="M 2464.9726999999993,2713.2715 l -188.3594,637.2168 -101.0293,-156.9121 109.8281,-445.6699 z"/><path d="M 2890.5722999999994,2739.0449 l -168.7696,633.4707 -88,-177.1172 65.8926,-423.0859 z"/><path d="M 1053.4804999999994,2748.1641 l 30.2226,54.5507 a 12.0012,12.0012 0 0 0 6.168,5.377 l 111.4355,43.0918 -125.0546,401.8223 -104.86528,-68.1192 z"/><path d="M 958.1464799999994,3204.9043 l 111.03122,72.127 L 1041.4141,3394 H 813.46289 l 60.05859,-131.6602 z"/><path d="M 2159.574199999999,3213.0469000000003 l 105.8281,164.3594 -16.4121,16.5937 h -221.4511 l 56.1836,-129.334 z"/><path d="M 2616.4022999999993,3214.3145000000004 l 89.2754,179.6855 h -223.1289 l 58.5801,-127.9883 z"/></g><path fill="none" stroke="#fff" stroke-linecap="round" stroke-linejoin="round" stroke-width="24" d="M 1900,977 1711.7,654 1902,461.3 l 17,11.7 10.9,337 -29.4,168.1 37.5,478.6 -157.4,12.8 -65.3,-143.3 L 1556,1201 1528,1556.9 990,1988.3 985.9,1865.5 767.2,1989.8 702.5,1625.3337 1042.6,1307.7 1281,931 1556,1201 M 702.34601,1625.4233 859.4,1065 1107,782.6 1455,653.4 1710,655 m 1.2089,-0.77485 L 1523.5,946 l 32.6411,254.6798 M 1281,931 1685.6613,657.78904 M 1931,809 l 454,91 m 0.5375,0.22312 L 1919,1016 M 882,1043 1281.3595,930.55092 M 1045,1309 l 294,394 m -293,-391 -23,237.3 292,161.4 m -292.1153,-162.2129 -37.65403,318.3976 M 1529,1558 l 361,159.4 466.3975,6.8411 577.1719,361.3494 L 3003,2352 3050,1811.7 2746,1701 2933.5558,2086 M 2355.2307,1724 2745,1700 M 1889.4129,1717.5767 1532,2320.2 990.48712,1987.4871 1193,2506 l 221,-99 -128.2,264 7.2,28.4 120.5,15.9 L 1504,2947 1216.1012,2844.0294 1083,3271.7 958,3190.5 864,3254.3 794.8,3406 h 256.1 l 31.9895,-134.7769 M 2356,1724 l -150.8,561.9 -258.8,41.1 62.1,183.8 267.5,226.7 205.3,-39.6 L 2330,2429 2690.7,2761.7 2907,2724 2725.3,3406 H 2463.8589 L 2531.6,3258 2621,3196.6 2725.0391,3406 M 3050.0061,1811.5639 3281.7,2111 3454.3,2758 3679,2976 M 2921.1116,2088.6673 2780.4,2508.9 2907,2724 M 1086,2268.8 902,2450 1094.2,2796.9 1216,2844 m 989,-554 124,138 M 1531.8847,2319.8589 1506,2361.1 1414,2407 m 91.9755,-46.1546 L 1947,2327 m 1056,25 62.1,380 228.9,212.1 373,26.9 M 3018.2191,2427 3453,2758 M 1292,2700 1088.2156,2766.1653 1192,2506 l 93.8884,164.3327 M 2780.4442,2508.7789 2689,2759 m -207,-61 -201.3,681 -117.7,-182.8 -88.9,60.5 -64.8564,149.3 H 2254 l 26.7812,-27.0785 M 958.11055,3190.5548 1047.1075,2717.1116 M 2275,2740 2162.346,3197.1411 M 2689,2763 l -67.5558,433.7769" class="lines"/></svg>