<svg xmlns="http://www.w3.org/2000/svg" viewBox="0 0 4096 4096">
  <path
    fill="none"
    stroke="#111111"
    stroke-width="24"
    stroke-linecap="round"
    stroke-linejoin="round"
    d="M 1900,977 1711.7,654 1902,461.3 l 17,11.7 10.9,337 -29.4,168.1 37.5,478.6 -157.4,12.8 -65.3,-143.3 L 1556,1201 1528,1556.9 990,1988.3 985.9,1865.5 767.2,1989.8 702.5,1625.3337 1042.6,1307.7 1281,931 1556,1201 M 702.34601,1625.4233 859.4,1065 1107,782.6 1455,653.4 1710,655 m 1.2089,-0.77485 L 1523.5,946 l 32.6411,254.6798 M 1281,931 1685.6613,657.78904 M 1931,809 l 454,91 m 0.5375,0.22312 L 1919,1016 M 882,1043 1281.3595,930.55092 M 1045,1309 l 294,394 m -293,-391 -23,237.3 292,161.4 m -292.1153,-162.2129 -37.65403,318.3976 M 1529,1558 l 361,159.4 466.3975,6.8411 577.1719,361.3494 L 3003,2352 3050,1811.7 2746,1701 2933.5558,2086 M 2355.2307,1724 2745,1700 M 1889.4129,1717.5767 1532,2320.2 990.48712,1987.4871 1193,2506 l 221,-99 -128.2,264 7.2,28.4 120.5,15.9 L 1504,2947 1216.1012,2844.0294 1083,3271.7 958,3190.5 864,3254.3 794.8,3406 h 256.1 l 31.9895,-134.7769 M 2356,1724 l -150.8,561.9 -258.8,41.1 62.1,183.8 267.5,226.7 205.3,-39.6 L 2330,2429 2690.7,2761.7 2907,2724 2725.3,3406 H 2463.8589 L 2531.6,3258 2621,3196.6 2725.0391,3406 M 3050.0061,1811.5639 3281.7,2111 3454.3,2758 3679,2976 M 2921.1116,2088.6673 2780.4,2508.9 2907,2724 M 1086,2268.8 902,2450 1094.2,2796.9 1216,2844 m 989,-554 124,138 M 1531.8847,2319.8589 1506,2361.1 1414,2407 m 91.9755,-46.1546 L 1947,2327 m 1056,25 62.1,380 228.9,212.1 373,26.9 M 3018.2191,2427 3453,2758 M 1292,2700 1088.2156,2766.1653 1192,2506 l 93.8884,164.3327 M 2780.4442,2508.7789 2689,2759 m -207,-61 -201.3,681 -117.7,-182.8 -88.9,60.5 -64.8564,149.3 H 2254 l 26.7812,-27.0785 M 958.11055,3190.5548 1047.1075,2717.1116 M 2275,2740 2162.346,3197.1411 M 2689,2763 l -67.5558,433.7769"
  />
</svg>